STARTFONT 2.1
FONT -ibm-courier-medium-o-normal--24-240-75-75-m-119-iso8859-2
SIZE 24 75 75
FONTBOUNDINGBOX 19 24 -1 -3
COMMENT $Header: courO24.bdf,v 1.1 96/01/22 23:45:36 peterlin Exp $
COMMENT 
COMMENT Copyright International Business Machines,Corp. 1991
COMMENT IBM Courier is a Trademark of the IBM Corporation.
COMMENT 
COMMENT Automatic rendering from Adobe Type 1 outline:
COMMENT Primoz Peterlin <primoz.peterlin@biofiz.mf.uni-lj.si>
COMMENT couri.pfa rendered at 24.000000 points
COMMENT Checksum eb69a063
STARTPROPERTIES 3
FONT_ASCENT 20
FONT_DESCENT 3
DEFAULT_CHAR 32
ENDPROPERTIES
CHARS 191
STARTCHAR space
ENCODING 32
SWIDTH 596 0
DWIDTH 15 0
BBX 0 0 0 1
BITMAP
ENDCHAR
STARTCHAR exclam
ENCODING 33
SWIDTH 596 0
DWIDTH 15 0
BBX 6 14 6 1
BITMAP
0c
0c
08
18
18
18
10
10
10
00
00
70
70
60
ENDCHAR
STARTCHAR quotedbl
ENCODING 34
SWIDTH 596 0
DWIDTH 15 0
BBX 8 7 6 8
BITMAP
66
66
66
66
cc
cc
cc
ENDCHAR
STARTCHAR numbersign
ENCODING 35
SWIDTH 596 0
DWIDTH 15 0
BBX 14 17 3 0
BITMAP
0210
0630
0420
0420
0c64
3ff8
4840
0840
18c0
1080
1090
fff0
b180
2100
2100
6300
4200
ENDCHAR
STARTCHAR dollar
ENCODING 36
SWIDTH 596 0
DWIDTH 15 0
BBX 12 19 3 -2
BITMAP
0100
0100
0390
0fe0
1220
2220
2200
3200
1e00
0780
04c0
0440
4440
4c80
ef80
be00
0800
0800
1800
ENDCHAR
STARTCHAR percent
ENCODING 37
SWIDTH 596 0
DWIDTH 15 0
BBX 11 15 4 1
BITMAP
3c00
4600
8200
8200
8c20
78c0
0700
3c00
f000
c780
0c40
1040
1040
1880
0f00
ENDCHAR
STARTCHAR ampersand
ENCODING 38
SWIDTH 596 0
DWIDTH 15 0
BBX 11 13 3 1
BITMAP
07c0
1840
1000
1000
1800
0800
3460
44c0
c280
8300
8300
c700
7980
ENDCHAR
STARTCHAR quoteright
ENCODING 39
SWIDTH 596 0
DWIDTH 15 0
BBX 6 6 6 9
BITMAP
1c
18
30
30
60
c0
ENDCHAR
STARTCHAR parenleft
ENCODING 40
SWIDTH 596 0
DWIDTH 15 0
BBX 6 19 9 -2
BITMAP
0c
18
18
30
20
60
40
c0
c0
80
80
80
80
80
80
80
40
40
40
ENDCHAR
STARTCHAR parenright
ENCODING 41
SWIDTH 596 0
DWIDTH 15 0
BBX 6 19 3 -2
BITMAP
08
08
08
04
04
04
04
04
04
04
0c
08
08
10
10
20
60
40
c0
ENDCHAR
STARTCHAR asterisk
ENCODING 42
SWIDTH 596 0
DWIDTH 15 0
BBX 9 9 5 6
BITMAP
0c00
0c00
8880
eb80
7e00
3800
6c00
c600
4400
ENDCHAR
STARTCHAR plus
ENCODING 43
SWIDTH 596 0
DWIDTH 15 0
BBX 12 11 3 3
BITMAP
0200
0200
0200
0200
0200
fff0
0200
0200
0200
0200
0200
ENDCHAR
STARTCHAR comma
ENCODING 44
SWIDTH 596 0
DWIDTH 15 0
BBX 6 6 4 -2
BITMAP
1c
18
30
70
60
c0
ENDCHAR
STARTCHAR minus
ENCODING 45
SWIDTH 596 0
DWIDTH 15 0
BBX 12 1 3 8
BITMAP
fff0
ENDCHAR
STARTCHAR period
ENCODING 46
SWIDTH 596 0
DWIDTH 15 0
BBX 4 3 6 1
BITMAP
70
f0
f0
ENDCHAR
STARTCHAR slash
ENCODING 47
SWIDTH 596 0
DWIDTH 15 0
BBX 15 21 1 -2
BITMAP
0002
0004
000c
0008
0010
0030
0020
0040
00c0
0180
0100
0300
0600
0400
0800
1800
1000
2000
6000
4000
8000
ENDCHAR
STARTCHAR zero
ENCODING 48
SWIDTH 596 0
DWIDTH 15 0
BBX 10 15 4 1
BITMAP
0780
18c0
3040
2040
4040
4040
4040
8040
8080
8080
8080
8100
8300
c600
7c00
ENDCHAR
STARTCHAR one
ENCODING 49
SWIDTH 596 0
DWIDTH 15 0
BBX 10 15 3 1
BITMAP
0380
1d80
1100
0100
0300
0300
0200
0200
0200
0600
0400
0400
0400
0400
ffc0
ENDCHAR
STARTCHAR two
ENCODING 50
SWIDTH 596 0
DWIDTH 15 0
BBX 12 15 2 1
BITMAP
07c0
0c30
1810
0010
0010
0030
0060
00c0
0180
0300
0400
1860
3040
4040
ffc0
ENDCHAR
STARTCHAR three
ENCODING 51
SWIDTH 596 0
DWIDTH 15 0
BBX 11 15 2 1
BITMAP
07c0
1860
0020
0020
0020
0040
0380
01c0
0040
0040
0040
0040
0080
4180
3e00
ENDCHAR
STARTCHAR four
ENCODING 52
SWIDTH 596 0
DWIDTH 15 0
BBX 10 15 3 1
BITMAP
00c0
0140
0240
0480
0480
0880
1080
2100
6100
4100
ffc0
0200
0200
0200
1f80
ENDCHAR
STARTCHAR five
ENCODING 53
SWIDTH 596 0
DWIDTH 15 0
BBX 13 15 2 1
BITMAP
0ff8
0800
0800
0800
1000
1780
18c0
1060
0020
0020
0020
0060
0040
4180
3f00
ENDCHAR
STARTCHAR six
ENCODING 54
SWIDTH 596 0
DWIDTH 15 0
BBX 11 15 4 1
BITMAP
03e0
0c00
1000
2000
2000
4000
5e00
a100
c080
8080
8080
8180
8100
4200
3c00
ENDCHAR
STARTCHAR seven
ENCODING 55
SWIDTH 596 0
DWIDTH 15 0
BBX 11 15 5 1
BITMAP
7fe0
c040
c040
0080
0180
0100
0300
0600
0400
0c00
0800
1800
3000
2000
6000
ENDCHAR
STARTCHAR eight
ENCODING 56
SWIDTH 596 0
DWIDTH 15 0
BBX 10 15 4 1
BITMAP
0f80
30c0
2040
4040
4040
6080
3180
1e00
6100
4080
8080
8080
8100
c200
7c00
ENDCHAR
STARTCHAR nine
ENCODING 57
SWIDTH 596 0
DWIDTH 15 0
BBX 11 15 3 1
BITMAP
0780
0860
1020
2020
2020
2020
2060
11a0
0f40
0040
0080
0180
0300
0600
fc00
ENDCHAR
STARTCHAR colon
ENCODING 58
SWIDTH 596 0
DWIDTH 15 0
BBX 5 10 6 1
BITMAP
38
78
78
00
00
00
00
70
f0
f0
ENDCHAR
STARTCHAR semicolon
ENCODING 59
SWIDTH 596 0
DWIDTH 15 0
BBX 7 12 4 -1
BITMAP
0e
1e
1e
00
00
00
18
38
30
60
60
c0
ENDCHAR
STARTCHAR less
ENCODING 60
SWIDTH 596 0
DWIDTH 15 0
BBX 12 11 3 3
BITMAP
0030
00e0
0300
0c00
3000
e000
1c00
0700
01e0
0070
0010
ENDCHAR
STARTCHAR equal
ENCODING 61
SWIDTH 596 0
DWIDTH 15 0
BBX 12 5 3 6
BITMAP
fff0
0000
0000
0000
fff0
ENDCHAR
STARTCHAR greater
ENCODING 62
SWIDTH 596 0
DWIDTH 15 0
BBX 12 11 4 3
BITMAP
c000
7000
1c00
0300
00c0
0070
03c0
1e00
f800
e000
8000
ENDCHAR
STARTCHAR question
ENCODING 63
SWIDTH 596 0
DWIDTH 15 0
BBX 9 14 5 1
BITMAP
3f00
4180
c080
0080
0180
0100
0e00
1000
3000
0000
0000
7000
7000
6000
ENDCHAR
STARTCHAR at
ENCODING 64
SWIDTH 596 0
DWIDTH 15 0
BBX 14 14 2 1
BITMAP
03e0
0c38
1008
2004
43e4
46c4
8cc4
8888
9188
9390
9ce0
c000
6070
3f80
ENDCHAR
STARTCHAR A
ENCODING 65
SWIDTH 596 0
DWIDTH 15 0
BBX 15 14 0 1
BITMAP
07e0
0060
00b0
0090
0110
0210
0210
0418
0ff8
0808
1008
3008
200c
f83e
ENDCHAR
STARTCHAR B
ENCODING 66
SWIDTH 596 0
DWIDTH 15 0
BBX 14 14 1 1
BITMAP
1ff0
040c
0404
0c04
080c
0818
0fe0
0830
1808
1008
1008
1018
3030
ffc0
ENDCHAR
STARTCHAR C
ENCODING 67
SWIDTH 596 0
DWIDTH 15 0
BBX 14 14 3 1
BITMAP
03e4
0c14
3008
2008
4008
4000
8000
8000
8000
8000
8000
4020
6060
1f80
ENDCHAR
STARTCHAR D
ENCODING 68
SWIDTH 596 0
DWIDTH 15 0
BBX 14 14 1 1
BITMAP
1ff0
0c18
080c
0804
0804
0804
1804
1004
100c
1008
1018
3030
2060
ff80
ENDCHAR
STARTCHAR E
ENCODING 69
SWIDTH 596 0
DWIDTH 15 0
BBX 15 14 1 1
BITMAP
1ffe
0406
0406
0c04
0824
0860
0fc0
0840
1840
1008
1008
1018
1018
fff0
ENDCHAR
STARTCHAR F
ENCODING 70
SWIDTH 596 0
DWIDTH 15 0
BBX 15 14 2 1
BITMAP
1ffe
0406
0c06
0c04
0820
0860
0fc0
1840
1840
1000
1000
1000
3000
fe00
ENDCHAR
STARTCHAR G
ENCODING 71
SWIDTH 596 0
DWIDTH 15 0
BBX 13 14 3 1
BITMAP
07c8
1838
3018
2010
4010
4000
8000
8000
83f8
8020
8020
c060
60c0
3f00
ENDCHAR
STARTCHAR H
ENCODING 72
SWIDTH 596 0
DWIDTH 15 0
BBX 16 14 1 1
BITMAP
1f1f
0c04
080c
0808
0808
0808
1ff8
1018
1010
1010
1010
3030
2020
f8f8
ENDCHAR
STARTCHAR I
ENCODING 73
SWIDTH 596 0
DWIDTH 15 0
BBX 13 14 2 1
BITMAP
1ff8
0100
0100
0100
0300
0200
0200
0200
0200
0600
0400
0400
0400
ffc0
ENDCHAR
STARTCHAR J
ENCODING 74
SWIDTH 596 0
DWIDTH 15 0
BBX 16 14 2 1
BITMAP
03ff
0010
0010
0010
0030
0030
0020
6020
4060
4060
c040
c0c0
e1c0
3f00
ENDCHAR
STARTCHAR K
ENCODING 75
SWIDTH 596 0
DWIDTH 15 0
BBX 15 14 2 1
BITMAP
1f3e
0408
0430
0840
0880
0900
0f00
0900
1180
1080
1040
1040
3020
f838
ENDCHAR
STARTCHAR L
ENCODING 76
SWIDTH 596 0
DWIDTH 15 0
BBX 14 14 1 1
BITMAP
1fc0
0600
0400
0400
0400
0c00
0c00
0800
0804
180c
1808
1008
1018
fff8
ENDCHAR
STARTCHAR M
ENCODING 77
SWIDTH 596 0
DWIDTH 15 0
BBX 18 14 0 1
BITMAP
1f03c0
070500
0f0500
090b00
091300
091200
192200
112200
114600
118600
300400
200400
200c00
fc3e00
ENDCHAR
STARTCHAR N
ENCODING 78
SWIDTH 596 0
DWIDTH 15 0
BBX 17 14 1 1
BITMAP
1e1f80
070200
0d0200
090600
098400
088400
088400
188400
104c00
104800
104800
106800
302800
fc3800
ENDCHAR
STARTCHAR O
ENCODING 79
SWIDTH 596 0
DWIDTH 15 0
BBX 13 14 2 1
BITMAP
03e0
0c30
1018
2008
4008
4008
8008
8008
8010
8010
c020
4060
60c0
1f00
ENDCHAR
STARTCHAR P
ENCODING 80
SWIDTH 596 0
DWIDTH 15 0
BBX 14 14 2 1
BITMAP
1ff0
0408
0404
0404
0c04
0808
0818
0ff0
0800
1000
1000
1000
1000
fe00
ENDCHAR
STARTCHAR Q
ENCODING 81
SWIDTH 596 0
DWIDTH 15 0
BBX 13 17 2 -2
BITMAP
03e0
0c30
1018
2008
4008
4008
8008
8008
8010
8010
c020
4060
60c0
1f00
1800
3e20
41c0
ENDCHAR
STARTCHAR R
ENCODING 82
SWIDTH 596 0
DWIDTH 15 0
BBX 14 14 1 1
BITMAP
1ff8
040c
0404
0c04
080c
0818
0fe0
0880
10c0
1040
1040
1060
1020
fc3c
ENDCHAR
STARTCHAR S
ENCODING 83
SWIDTH 596 0
DWIDTH 15 0
BBX 14 15 2 1
BITMAP
0004
07cc
0c38
1818
1010
1000
1800
0f80
03c0
0020
0020
4020
4060
e0c0
df80
ENDCHAR
STARTCHAR T
ENCODING 84
SWIDTH 596 0
DWIDTH 15 0
BBX 13 14 3 1
BITMAP
7ff8
4208
4208
8208
8208
0200
0200
0400
0400
0400
0400
0c00
0800
7f00
ENDCHAR
STARTCHAR U
ENCODING 85
SWIDTH 596 0
DWIDTH 15 0
BBX 13 14 4 1
BITMAP
f8f8
4020
4020
4020
4020
4040
4040
8040
8040
80c0
8080
8080
c300
7e00
ENDCHAR
STARTCHAR V
ENCODING 86
SWIDTH 596 0
DWIDTH 15 0
BBX 15 14 3 1
BITMAP
fc3e
2008
2010
2010
3020
3060
1040
1080
1080
1100
1b00
1a00
0c00
0c00
ENDCHAR
STARTCHAR W
ENCODING 87
SWIDTH 596 0
DWIDTH 15 0
BBX 15 14 3 1
BITMAP
f83e
4008
4008
4308
4310
4510
4510
4920
4920
5120
e1c0
a0c0
c0c0
c080
ENDCHAR
STARTCHAR X
ENCODING 88
SWIDTH 596 0
DWIDTH 15 0
BBX 16 14 1 1
BITMAP
1f1f
0404
0608
0210
0320
0140
0080
01c0
0240
0460
0820
1030
2010
f8fc
ENDCHAR
STARTCHAR Y
ENCODING 89
SWIDTH 596 0
DWIDTH 15 0
BBX 14 14 3 1
BITMAP
f87c
2030
3020
1040
1080
1980
0b00
0e00
0400
0c00
0c00
0800
0800
7f00
ENDCHAR
STARTCHAR Z
ENCODING 90
SWIDTH 596 0
DWIDTH 15 0
BBX 13 14 2 1
BITMAP
1ff8
1010
1020
2040
2080
0180
0300
0600
0c00
1830
1020
2020
4020
ffe0
ENDCHAR
STARTCHAR bracketleft
ENCODING 91
SWIDTH 596 0
DWIDTH 15 0
BBX 8 18 7 -1
BITMAP
0f
08
10
10
10
10
10
20
20
20
20
60
40
40
40
40
c0
f0
ENDCHAR
STARTCHAR backslash
ENCODING 92
SWIDTH 596 0
DWIDTH 15 0
BBX 6 21 6 -2
BITMAP
80
c0
c0
40
40
40
60
20
20
20
30
10
10
10
18
08
08
08
0c
04
04
ENDCHAR
STARTCHAR bracketright
ENCODING 93
SWIDTH 596 0
DWIDTH 15 0
BBX 8 18 3 -1
BITMAP
0f
03
02
02
02
02
06
04
04
04
04
08
08
08
08
08
10
f0
ENDCHAR
STARTCHAR asciicircum
ENCODING 94
SWIDTH 596 0
DWIDTH 15 0
BBX 11 10 4 5
BITMAP
0c00
0a00
0a00
1300
1100
3180
2080
60c0
4040
c060
ENDCHAR
STARTCHAR underscore
ENCODING 95
SWIDTH 596 0
DWIDTH 15 0
BBX 17 1 -1 -2
BITMAP
ffff80
ENDCHAR
STARTCHAR quoteleft
ENCODING 96
SWIDTH 596 0
DWIDTH 15 0
BBX 6 6 6 9
BITMAP
0c
18
30
30
60
e0
ENDCHAR
STARTCHAR a
ENCODING 97
SWIDTH 596 0
DWIDTH 15 0
BBX 12 11 2 1
BITMAP
0fc0
1060
0020
0020
1fe0
3060
4040
8040
80c0
c3c0
7cf0
ENDCHAR
STARTCHAR b
ENCODING 98
SWIDTH 596 0
DWIDTH 15 0
BBX 15 15 0 1
BITMAP
1e00
0600
0400
0400
04f0
0f0c
0e04
0c02
0802
0802
1802
1804
1808
1c30
73c0
ENDCHAR
STARTCHAR c
ENCODING 99
SWIDTH 596 0
DWIDTH 15 0
BBX 12 11 3 1
BITMAP
0f90
1070
2020
4020
c000
8000
8000
8000
8040
61c0
3f00
ENDCHAR
STARTCHAR d
ENCODING 100
SWIDTH 596 0
DWIDTH 15 0
BBX 13 15 3 1
BITMAP
0008
0010
0010
0010
0f30
30b0
6060
4060
8060
8060
8040
80c0
80c0
43c0
3ef0
ENDCHAR
STARTCHAR e
ENCODING 101
SWIDTH 596 0
DWIDTH 15 0
BBX 12 11 3 1
BITMAP
0fc0
1860
2030
4010
c010
fff0
8000
8000
8000
60e0
3f80
ENDCHAR
STARTCHAR f
ENCODING 102
SWIDTH 596 0
DWIDTH 15 0
BBX 14 15 2 1
BITMAP
01fc
0300
0600
0600
0400
3fe0
0c00
0c00
0c00
0800
0800
1800
1800
1000
ff80
ENDCHAR
STARTCHAR g
ENCODING 103
SWIDTH 596 0
DWIDTH 15 0
BBX 14 15 2 -3
BITMAP
0f9c
18f0
2060
4020
8020
8020
8060
8060
40c0
6140
3e40
0040
0080
0180
3e00
ENDCHAR
STARTCHAR h
ENCODING 104
SWIDTH 596 0
DWIDTH 15 0
BBX 14 15 1 1
BITMAP
1c00
0400
0400
0400
0df0
0b18
0c08
0808
1818
1018
1010
1010
1010
3030
f8f8
ENDCHAR
STARTCHAR i
ENCODING 105
SWIDTH 596 0
DWIDTH 15 0
BBX 10 16 3 1
BITMAP
0100
0300
0300
0000
0000
1f00
0200
0200
0200
0200
0600
0400
0400
0400
0400
ffc0
ENDCHAR
STARTCHAR j
ENCODING 106
SWIDTH 596 0
DWIDTH 15 0
BBX 11 20 1 -3
BITMAP
0020
0060
0060
0000
0000
1fe0
0020
0060
0060
0040
0040
0040
00c0
00c0
0080
0080
0180
0100
4200
fc00
ENDCHAR
STARTCHAR k
ENCODING 107
SWIDTH 596 0
DWIDTH 15 0
BBX 14 15 1 1
BITMAP
1c00
0400
0400
0c00
0c7c
0820
08c0
0900
1e00
1f00
1100
1080
10c0
3040
e0f8
ENDCHAR
STARTCHAR l
ENCODING 108
SWIDTH 596 0
DWIDTH 15 0
BBX 10 15 3 1
BITMAP
1f00
0100
0100
0100
0300
0200
0200
0200
0200
0600
0400
0400
0400
0400
ffc0
ENDCHAR
STARTCHAR m
ENCODING 109
SWIDTH 596 0
DWIDTH 15 0
BBX 15 11 0 1
BITMAP
3b9c
0ce2
1842
1842
10c2
1086
1084
3084
2084
2184
f9ce
ENDCHAR
STARTCHAR n
ENCODING 110
SWIDTH 596 0
DWIDTH 15 0
BBX 14 11 1 1
BITMAP
39e0
0f18
0c08
1808
1818
1010
1010
1010
3030
2020
f8f8
ENDCHAR
STARTCHAR o
ENCODING 111
SWIDTH 596 0
DWIDTH 15 0
BBX 13 11 2 1
BITMAP
07e0
1830
2018
4008
c008
8008
8018
8010
c020
60c0
3f00
ENDCHAR
STARTCHAR p
ENCODING 112
SWIDTH 596 0
DWIDTH 15 0
BBX 15 15 0 -3
BITMAP
1cf8
0f0c
0e06
0c02
0802
0802
1806
1804
1808
1630
13e0
3000
2000
2000
fe00
ENDCHAR
STARTCHAR q
ENCODING 113
SWIDTH 596 0
DWIDTH 15 0
BBX 15 15 2 -3
BITMAP
079e
1870
2030
4030
4030
8030
8020
8020
c060
61a0
3e60
0040
0040
0040
07f0
ENDCHAR
STARTCHAR r
ENCODING 114
SWIDTH 596 0
DWIDTH 15 0
BBX 14 11 2 1
BITMAP
3e78
058c
070c
0600
0c00
0c00
0800
0800
0800
1800
ff80
ENDCHAR
STARTCHAR s
ENCODING 115
SWIDTH 596 0
DWIDTH 15 0
BBX 11 11 3 1
BITMAP
0fa0
3060
4020
4020
6000
3f80
00c0
8040
8040
c180
bf00
ENDCHAR
STARTCHAR t
ENCODING 116
SWIDTH 596 0
DWIDTH 15 0
BBX 9 14 5 1
BITMAP
2000
2000
2000
2000
ff00
4000
4000
4000
4000
8000
8000
8000
c380
7e00
ENDCHAR
STARTCHAR u
ENCODING 117
SWIDTH 596 0
DWIDTH 15 0
BBX 11 11 3 1
BITMAP
e0e0
2020
2060
2040
4040
4040
4040
40c0
4080
4380
3ce0
ENDCHAR
STARTCHAR v
ENCODING 118
SWIDTH 596 0
DWIDTH 15 0
BBX 14 11 3 1
BITMAP
f87c
2030
2020
1040
1040
1080
1100
0900
0a00
0a00
0c00
ENDCHAR
STARTCHAR w
ENCODING 119
SWIDTH 596 0
DWIDTH 15 0
BBX 15 11 2 1
BITMAP
f81e
400c
4108
4308
6310
6510
6520
2920
2940
30c0
2080
ENDCHAR
STARTCHAR x
ENCODING 120
SWIDTH 596 0
DWIDTH 15 0
BBX 15 11 1 1
BITMAP
1e3e
0c08
0410
0260
0180
0180
0280
0440
1820
2030
f878
ENDCHAR
STARTCHAR y
ENCODING 121
SWIDTH 596 0
DWIDTH 15 0
BBX 13 15 3 -3
BITMAP
f8f8
2020
2020
6060
4040
4040
4040
40c0
41c0
2280
1c80
0080
0180
4300
7c00
ENDCHAR
STARTCHAR z
ENCODING 122
SWIDTH 596 0
DWIDTH 15 0
BBX 12 11 3 1
BITMAP
3ff0
2060
20c0
2180
0300
0600
0c00
1800
3040
6040
ffc0
ENDCHAR
STARTCHAR braceleft
ENCODING 123
SWIDTH 596 0
DWIDTH 15 0
BBX 8 18 7 -1
BITMAP
07
08
18
10
10
10
10
10
60
c0
20
20
20
20
40
40
40
70
ENDCHAR
STARTCHAR bar
ENCODING 124
SWIDTH 596 0
DWIDTH 15 0
BBX 1 21 9 -3
BITMAP
80
80
80
80
80
80
80
80
80
80
80
80
80
80
80
80
80
80
80
80
80
ENDCHAR
STARTCHAR braceright
ENCODING 125
SWIDTH 596 0
DWIDTH 15 0
BBX 8 18 3 -1
BITMAP
0c
02
02
02
04
04
04
04
07
06
08
08
08
08
08
18
10
e0
ENDCHAR
STARTCHAR asciitilde
ENCODING 126
SWIDTH 596 0
DWIDTH 15 0
BBX 11 4 4 7
BITMAP
1020
7e60
47c0
4000
ENDCHAR
STARTCHAR space
ENCODING 160
SWIDTH 596 0
DWIDTH 15 0
BBX 0 0 0 1
BITMAP
ENDCHAR
STARTCHAR Aogonek
ENCODING 161
SWIDTH 596 0
DWIDTH 15 0
BBX 15 17 0 -2
BITMAP
03e0
00a0
00a0
00a0
0130
0230
0210
0410
07f8
0808
1008
1008
200c
f83e
0010
0024
0038
ENDCHAR
STARTCHAR breve
ENCODING 162
SWIDTH 596 0
DWIDTH 15 0
BBX 8 3 7 14
BITMAP
80
83
7c
ENDCHAR
STARTCHAR Lslash
ENCODING 163
SWIDTH 596 0
DWIDTH 15 0
BBX 14 14 1 1
BITMAP
1fc0
0600
0400
0420
04e0
0f80
0e00
7804
680c
080c
1808
1008
1018
fff8
ENDCHAR
STARTCHAR currency
ENCODING 164
SWIDTH 596 0
DWIDTH 15 0
BBX 11 12 4 2
BITMAP
8020
8060
5ec0
2180
40c0
4040
4040
40c0
2180
5ec0
8060
8020
ENDCHAR
STARTCHAR Lcaron
ENCODING 165
SWIDTH 596 0
DWIDTH 15 0
BBX 15 15 1 1
BITMAP
000c
1fd8
0630
0400
0400
0400
0c00
0c00
0800
0804
180c
1808
1008
1018
fff8
ENDCHAR
STARTCHAR Sacute
ENCODING 166
SWIDTH 596 0
DWIDTH 15 0
BBX 14 19 2 1
BITMAP
0060
00c0
0180
0000
0004
07cc
0c38
1818
1010
1000
1800
0f80
03c0
0020
0020
4020
4060
e0c0
df80
ENDCHAR
STARTCHAR section
ENCODING 167
SWIDTH 596 0
DWIDTH 15 0
BBX 12 16 3 -1
BITMAP
03f0
0c20
0820
0800
0c00
3600
2380
2080
3040
1840
0e40
0780
0300
c100
c200
fc00
ENDCHAR
STARTCHAR dieresis
ENCODING 168
SWIDTH 596 0
DWIDTH 15 0
BBX 5 3 8 13
BITMAP
48
d8
d8
ENDCHAR
STARTCHAR Scaron
ENCODING 169
SWIDTH 596 0
DWIDTH 15 0
BBX 14 19 2 1
BITMAP
0108
00b0
00e0
0000
0004
07cc
0c38
1818
1010
1000
1800
0f80
03c0
0020
0020
4020
4060
e0c0
df80
ENDCHAR
STARTCHAR Scedilla
ENCODING 170
SWIDTH 596 0
DWIDTH 15 0
BBX 14 18 2 -2
BITMAP
0004
07cc
0c38
1818
1010
1000
1800
0f00
03c0
0060
0020
4020
4060
e0c0
df80
0400
0200
1e00
ENDCHAR
STARTCHAR Tcaron
ENCODING 171
SWIDTH 596 0
DWIDTH 15 0
BBX 13 19 3 1
BITMAP
0210
0160
01c0
0000
0000
7ff8
4208
4208
8208
8208
0200
0200
0400
0400
0400
0400
0c00
0800
7f00
ENDCHAR
STARTCHAR Zacute
ENCODING 172
SWIDTH 596 0
DWIDTH 15 0
BBX 13 19 2 1
BITMAP
0060
00c0
0180
0000
0000
1ff8
1010
1020
2040
2080
0180
0300
0600
0c00
1830
1020
2020
4020
ffe0
ENDCHAR
STARTCHAR hyphen
ENCODING 173
SWIDTH 596 0
DWIDTH 15 0
BBX 5 1 7 8
BITMAP
f8
ENDCHAR
STARTCHAR Zcaron
ENCODING 174
SWIDTH 596 0
DWIDTH 15 0
BBX 13 19 2 1
BITMAP
0108
00b0
00e0
0000
0000
1ff8
1010
1020
2040
2080
0180
0300
0600
0c00
1830
1020
2020
4020
ffe0
ENDCHAR
STARTCHAR Zdotaccent
ENCODING 175
SWIDTH 596 0
DWIDTH 15 0
BBX 13 19 2 1
BITMAP
00c0
00c0
00c0
0000
0000
1ff8
1010
1020
2040
2080
0180
0300
0600
0c00
1830
1020
2020
4020
ffe0
ENDCHAR
STARTCHAR degree
ENCODING 176
SWIDTH 596 0
DWIDTH 15 0
BBX 8 7 5 9
BITMAP
3c
42
81
81
81
62
3c
ENDCHAR
STARTCHAR aogonek
ENCODING 177
SWIDTH 596 0
DWIDTH 15 0
BBX 12 14 2 -2
BITMAP
0fc0
1060
0020
0020
1fe0
3060
4040
8040
80c0
c3c0
7cf0
0080
0120
01c0
ENDCHAR
STARTCHAR ogonek
ENCODING 178
SWIDTH 596 0
DWIDTH 15 0
BBX 4 3 6 -2
BITMAP
40
b0
c0
ENDCHAR
STARTCHAR lslash
ENCODING 179
SWIDTH 596 0
DWIDTH 15 0
BBX 12 15 2 1
BITMAP
1f80
0080
0180
0100
0110
0370
03c0
0f00
3a00
2200
0200
0600
0600
0400
ffc0
ENDCHAR
STARTCHAR acute
ENCODING 180
SWIDTH 596 0
DWIDTH 15 0
BBX 5 3 8 13
BITMAP
30
60
c0
ENDCHAR
STARTCHAR lcaron
ENCODING 181
SWIDTH 596 0
DWIDTH 15 0
BBX 13 15 3 1
BITMAP
1f30
0160
01c0
0100
0300
0200
0200
0200
0200
0600
0400
0400
0400
0400
ffc0
ENDCHAR
STARTCHAR sacute
ENCODING 182
SWIDTH 596 0
DWIDTH 15 0
BBX 11 15 3 1
BITMAP
0180
0300
0600
0000
0fa0
3060
4020
4020
6000
3f80
00c0
8040
8040
c180
bf00
ENDCHAR
STARTCHAR caron
ENCODING 183
SWIDTH 596 0
DWIDTH 15 0
BBX 6 2 8 14
BITMAP
c8
70
ENDCHAR
STARTCHAR cedilla
ENCODING 184
SWIDTH 596 0
DWIDTH 15 0
BBX 5 4 5 -2
BITMAP
20
20
38
f8
ENDCHAR
STARTCHAR scaron
ENCODING 185
SWIDTH 596 0
DWIDTH 15 0
BBX 11 15 3 1
BITMAP
0640
0380
0000
0000
0fa0
3060
4020
4020
6000
3f80
00c0
8040
8040
c180
bf00
ENDCHAR
STARTCHAR scedilla
ENCODING 186
SWIDTH 596 0
DWIDTH 15 0
BBX 12 14 3 -2
BITMAP
0f90
3060
4020
4020
6000
3f80
00c0
8040
8040
c180
bf00
0e00
0e00
3e00
ENDCHAR
STARTCHAR tcaron
ENCODING 187
SWIDTH 596 0
DWIDTH 15 0
BBX 10 15 5 1
BITMAP
0180
2300
2600
2000
2000
ff00
4000
4000
4000
4000
8000
8000
8000
c380
7e00
ENDCHAR
STARTCHAR zacute
ENCODING 188
SWIDTH 596 0
DWIDTH 15 0
BBX 12 15 3 1
BITMAP
0180
0300
0600
0000
3ff0
2060
20c0
2180
0300
0600
0c00
1800
3040
6040
ffc0
ENDCHAR
STARTCHAR hungarumlaut
ENCODING 189
SWIDTH 596 0
DWIDTH 15 0
BBX 8 3 7 13
BITMAP
32
64
d8
ENDCHAR
STARTCHAR zcaron
ENCODING 190
SWIDTH 596 0
DWIDTH 15 0
BBX 12 15 3 1
BITMAP
0640
0380
0000
0000
3ff0
2060
20c0
2180
0300
0600
0c00
1800
3040
6040
ffc0
ENDCHAR
STARTCHAR zdotaccent
ENCODING 191
SWIDTH 596 0
DWIDTH 15 0
BBX 12 15 3 1
BITMAP
0300
0300
0300
0000
3ff0
2060
20c0
2180
0300
0600
0c00
1800
3040
6040
ffc0
ENDCHAR
STARTCHAR Racute
ENCODING 192
SWIDTH 596 0
DWIDTH 15 0
BBX 14 19 1 1
BITMAP
0030
0060
00c0
0000
0000
1ff8
040c
0404
0c04
080c
0818
0fe0
0880
10c0
1040
1040
1060
1020
fc3c
ENDCHAR
STARTCHAR Aacute
ENCODING 193
SWIDTH 596 0
DWIDTH 15 0
BBX 15 19 0 1
BITMAP
0030
0060
00c0
0000
0000
07e0
0060
00b0
0090
0110
0210
0210
0418
0ff8
0808
1008
3008
200c
f83e
ENDCHAR
STARTCHAR Acircumflex
ENCODING 194
SWIDTH 596 0
DWIDTH 15 0
BBX 15 19 0 1
BITMAP
0070
0090
0108
0000
0000
07e0
0060
00b0
0090
0110
0210
0210
0418
0ff8
0808
1008
3008
200c
f83e
ENDCHAR
STARTCHAR Abreve
ENCODING 195
SWIDTH 596 0
DWIDTH 15 0
BBX 15 19 0 1
BITMAP
0106
008c
0078
0000
0000
07e0
0060
00b0
0090
0110
0210
0210
0418
0ff8
0808
1008
3008
200c
f83e
ENDCHAR
STARTCHAR Adieresis
ENCODING 196
SWIDTH 596 0
DWIDTH 15 0
BBX 15 19 0 1
BITMAP
0048
00d8
00d8
0000
0000
07e0
0060
00b0
0090
0110
0210
0210
0418
0ff8
0808
1008
3008
200c
f83e
ENDCHAR
STARTCHAR Lacute
ENCODING 197
SWIDTH 596 0
DWIDTH 15 0
BBX 14 19 1 1
BITMAP
0180
0300
0600
0000
0000
1fc0
0600
0400
0400
0400
0c00
0c00
0800
0804
180c
1808
1008
1018
fff8
ENDCHAR
STARTCHAR Cacute
ENCODING 198
SWIDTH 596 0
DWIDTH 15 0
BBX 14 19 3 1
BITMAP
00c0
0180
0300
0000
0000
03e4
0c14
3008
2008
4008
4000
8000
8000
8000
8000
8000
4020
6060
1f80
ENDCHAR
STARTCHAR Ccedilla
ENCODING 199
SWIDTH 596 0
DWIDTH 15 0
BBX 14 17 3 -2
BITMAP
03e4
0c14
3008
2008
4008
4000
8000
8000
8000
8000
8000
4020
6060
1f80
0400
0e00
3e00
ENDCHAR
STARTCHAR Ccaron
ENCODING 200
SWIDTH 596 0
DWIDTH 15 0
BBX 14 19 3 1
BITMAP
0210
0160
01c0
0000
0000
03e4
0c14
3008
2008
4008
4000
8000
8000
8000
8000
8000
4020
6060
1f80
ENDCHAR
STARTCHAR Eacute
ENCODING 201
SWIDTH 596 0
DWIDTH 15 0
BBX 15 19 1 1
BITMAP
0030
0060
00c0
0000
0000
1ffe
0406
0406
0c04
0824
0860
0fc0
0840
1840
1008
1008
1018
1018
fff0
ENDCHAR
STARTCHAR Eogonek
ENCODING 202
SWIDTH 596 0
DWIDTH 15 0
BBX 15 17 1 -2
BITMAP
1ffe
0402
0402
0406
0424
0c20
0fe0
0840
0840
1808
1808
1008
1008
7ff8
0040
00b0
00c0
ENDCHAR
STARTCHAR Edieresis
ENCODING 203
SWIDTH 596 0
DWIDTH 15 0
BBX 15 19 1 1
BITMAP
0048
00d8
00d8
0000
0000
1ffe
0406
0406
0c04
0824
0860
0fc0
0840
1840
1008
1008
1018
1018
fff0
ENDCHAR
STARTCHAR Ecaron
ENCODING 204
SWIDTH 596 0
DWIDTH 15 0
BBX 15 19 1 1
BITMAP
0084
0058
0070
0000
0000
1ffe
0406
0406
0c04
0824
0860
0fc0
0840
1840
1008
1008
1018
1018
fff0
ENDCHAR
STARTCHAR Iacute
ENCODING 205
SWIDTH 596 0
DWIDTH 15 0
BBX 13 19 2 1
BITMAP
0060
00c0
0180
0000
0000
1ff8
0100
0100
0100
0300
0200
0200
0200
0200
0600
0400
0400
0400
ffc0
ENDCHAR
STARTCHAR Icircumflex
ENCODING 206
SWIDTH 596 0
DWIDTH 15 0
BBX 13 19 2 1
BITMAP
00e0
0120
0210
0000
0000
1ff8
0100
0100
0100
0300
0200
0200
0200
0200
0600
0400
0400
0400
ffc0
ENDCHAR
STARTCHAR Dcaron
ENCODING 207
SWIDTH 596 0
DWIDTH 15 0
BBX 14 19 1 1
BITMAP
0108
00b0
00e0
0000
0000
1ff0
0c18
080c
0804
0804
0804
1804
1004
100c
1008
1018
3030
2060
ff80
ENDCHAR
STARTCHAR Eth
ENCODING 208
SWIDTH 596 0
DWIDTH 15 0
BBX 14 14 1 1
BITMAP
1ff0
0c18
080c
0804
0804
0804
7f84
1004
100c
1008
1018
3030
2060
ff80
ENDCHAR
STARTCHAR Nacute
ENCODING 209
SWIDTH 596 0
DWIDTH 15 0
BBX 17 19 1 1
BITMAP
003000
006000
00c000
000000
000000
1e1f80
070200
0d0200
090600
098400
088400
088400
188400
104c00
104800
104800
106800
302800
fc3800
ENDCHAR
STARTCHAR Ncaron
ENCODING 210
SWIDTH 596 0
DWIDTH 15 0
BBX 17 19 1 1
BITMAP
008400
005800
007000
000000
000000
1e1f80
070200
0d0200
090600
098400
088400
088400
188400
104c00
104800
104800
106800
302800
fc3800
ENDCHAR
STARTCHAR Oacute
ENCODING 211
SWIDTH 596 0
DWIDTH 15 0
BBX 13 19 2 1
BITMAP
0060
00c0
0180
0000
0000
03e0
0c30
1018
2008
4008
4008
8008
8008
8010
8010
c020
4060
60c0
1f00
ENDCHAR
STARTCHAR Ocircumflex
ENCODING 212
SWIDTH 596 0
DWIDTH 15 0
BBX 13 19 2 1
BITMAP
0070
0090
0108
0000
0000
03e0
0c30
1018
2008
4008
4008
8008
8008
8010
8010
c020
4060
60c0
1f00
ENDCHAR
STARTCHAR Ohungarumlaut
ENCODING 213
SWIDTH 596 0
DWIDTH 15 0
BBX 14 19 2 1
BITMAP
00c8
0190
0360
0000
0000
03e0
0c30
1018
2008
4008
4008
8008
8008
8010
8010
c020
4060
60c0
1f00
ENDCHAR
STARTCHAR Odieresis
ENCODING 214
SWIDTH 596 0
DWIDTH 15 0
BBX 13 19 2 1
BITMAP
0090
01b0
01b0
0000
0000
03e0
0c30
1018
2008
4008
4008
8008
8008
8010
8010
c020
4060
60c0
1f00
ENDCHAR
STARTCHAR multiply
ENCODING 215
SWIDTH 596 0
DWIDTH 15 0
BBX 9 9 5 4
BITMAP
c100
6380
3700
1c00
0800
1400
2200
4100
8080
ENDCHAR
STARTCHAR Rcaron
ENCODING 216
SWIDTH 596 0
DWIDTH 15 0
BBX 14 19 1 1
BITMAP
0084
0058
0070
0000
0000
1ff8
040c
0404
0c04
080c
0818
0fe0
0880
10c0
1040
1040
1060
1020
fc3c
ENDCHAR
STARTCHAR Uring
ENCODING 217
SWIDTH 596 0
DWIDTH 15 0
BBX 13 19 4 1
BITMAP
0380
0240
0380
0000
0000
f8f8
4020
4020
4020
4020
4040
4040
8040
8040
80c0
8080
8080
c300
7e00
ENDCHAR
STARTCHAR Uacute
ENCODING 218
SWIDTH 596 0
DWIDTH 15 0
BBX 13 19 4 1
BITMAP
0180
0300
0600
0000
0000
f8f8
4020
4020
4020
4020
4040
4040
8040
8040
80c0
8080
8080
c300
7e00
ENDCHAR
STARTCHAR Uhungarumlaut
ENCODING 219
SWIDTH 596 0
DWIDTH 15 0
BBX 13 19 4 1
BITMAP
0320
0640
0d80
0000
0000
f8f8
4020
4020
4020
4020
4040
4040
8040
8040
80c0
8080
8080
c300
7e00
ENDCHAR
STARTCHAR Udieresis
ENCODING 220
SWIDTH 596 0
DWIDTH 15 0
BBX 13 19 4 1
BITMAP
0240
06c0
06c0
0000
0000
f8f8
4020
4020
4020
4020
4040
4040
8040
8040
80c0
8080
8080
c300
7e00
ENDCHAR
STARTCHAR Yacute
ENCODING 221
SWIDTH 596 0
DWIDTH 15 0
BBX 14 19 3 1
BITMAP
00c0
0180
0300
0000
0000
f87c
2030
3020
1040
1080
1980
0b00
0e00
0400
0c00
0c00
0800
0800
7f00
ENDCHAR
STARTCHAR Tcedilla
ENCODING 222
SWIDTH 596 0
DWIDTH 15 0
BBX 13 17 3 -2
BITMAP
7ff8
4308
4208
c208
8208
0200
0600
0400
0400
0400
0400
0800
0800
7f00
0c00
0c00
3c00
ENDCHAR
STARTCHAR germandbls
ENCODING 223
SWIDTH 596 0
DWIDTH 15 0
BBX 12 16 2 1
BITMAP
03c0
0620
0c10
0810
0810
1820
11c0
1380
1060
3030
2010
2010
2010
2020
60c0
c780
ENDCHAR
STARTCHAR racute
ENCODING 224
SWIDTH 596 0
DWIDTH 15 0
BBX 14 15 2 1
BITMAP
00c0
0180
0300
0000
3e78
058c
070c
0600
0c00
0c00
0800
0800
0800
1800
ff80
ENDCHAR
STARTCHAR aacute
ENCODING 225
SWIDTH 596 0
DWIDTH 15 0
BBX 12 15 2 1
BITMAP
00c0
0180
0300
0000
0fc0
1060
0020
0020
1fe0
3060
4040
8040
80c0
c3c0
7cf0
ENDCHAR
STARTCHAR acircumflex
ENCODING 226
SWIDTH 596 0
DWIDTH 15 0
BBX 12 15 2 1
BITMAP
01c0
0660
0000
0000
0fc0
1060
0020
0020
1fe0
3060
4040
8040
80c0
c3c0
7cf0
ENDCHAR
STARTCHAR abreve
ENCODING 227
SWIDTH 596 0
DWIDTH 15 0
BBX 13 16 2 1
BITMAP
0400
0418
03e0
0000
0000
0fc0
1060
0020
0020
1fe0
3060
4040
8040
80c0
c3c0
7cf0
ENDCHAR
STARTCHAR adieresis
ENCODING 228
SWIDTH 596 0
DWIDTH 15 0
BBX 12 15 2 1
BITMAP
0120
0360
0360
0000
0fc0
1060
0020
0020
1fe0
3060
4040
8040
80c0
c3c0
7cf0
ENDCHAR
STARTCHAR lacute
ENCODING 229
SWIDTH 596 0
DWIDTH 15 0
BBX 10 20 3 1
BITMAP
0180
0300
0600
0000
0000
1f00
0100
0100
0100
0300
0200
0200
0200
0200
0600
0400
0400
0400
0400
ffc0
ENDCHAR
STARTCHAR cacute
ENCODING 230
SWIDTH 596 0
DWIDTH 15 0
BBX 12 15 3 1
BITMAP
0180
0300
0600
0000
0f90
1070
2020
4020
c000
8000
8000
8000
8040
61c0
3f00
ENDCHAR
STARTCHAR ccedilla
ENCODING 231
SWIDTH 596 0
DWIDTH 15 0
BBX 12 14 3 -2
BITMAP
0f90
1070
2020
4020
c000
8000
8000
8000
8040
61c0
3f00
0800
0c00
7c00
ENDCHAR
STARTCHAR ccaron
ENCODING 232
SWIDTH 596 0
DWIDTH 15 0
BBX 12 15 3 1
BITMAP
0640
0380
0000
0000
0f90
1070
2020
4020
c000
8000
8000
8000
8040
61c0
3f00
ENDCHAR
STARTCHAR eacute
ENCODING 233
SWIDTH 596 0
DWIDTH 15 0
BBX 12 15 3 1
BITMAP
0180
0300
0600
0000
0fc0
1860
2030
4010
c010
fff0
8000
8000
8000
60e0
3f80
ENDCHAR
STARTCHAR eogonek
ENCODING 234
SWIDTH 596 0
DWIDTH 15 0
BBX 12 14 3 -2
BITMAP
0fc0
1860
2030
4010
c010
fff0
8000
8000
8000
40e0
3f00
0c00
0900
0e00
ENDCHAR
STARTCHAR edieresis
ENCODING 235
SWIDTH 596 0
DWIDTH 15 0
BBX 12 15 3 1
BITMAP
0240
06c0
06c0
0000
0fc0
1860
2030
4010
c010
fff0
8000
8000
8000
60e0
3f80
ENDCHAR
STARTCHAR ecaron
ENCODING 236
SWIDTH 596 0
DWIDTH 15 0
BBX 12 15 3 1
BITMAP
0640
0380
0000
0000
0fc0
1860
2030
4010
c010
fff0
8000
8000
8000
60e0
3f80
ENDCHAR
STARTCHAR iacute
ENCODING 237
SWIDTH 596 0
DWIDTH 15 0
BBX 10 15 3 1
BITMAP
0180
0300
0600
0000
1f00
0200
0200
0200
0200
0600
0400
0400
0400
0400
ffc0
ENDCHAR
STARTCHAR icircumflex
ENCODING 238
SWIDTH 596 0
DWIDTH 15 0
BBX 10 15 3 1
BITMAP
0380
0cc0
0000
0000
1f00
0200
0200
0200
0200
0600
0400
0400
0400
0400
ffc0
ENDCHAR
STARTCHAR dcaron
ENCODING 239
SWIDTH 596 0
DWIDTH 15 0
BBX 18 15 3 1
BITMAP
000980
001300
001600
001000
0f3000
30b000
606000
406000
806000
806000
804000
80c000
80c000
43c000
3ef000
ENDCHAR
STARTCHAR dbar
ENCODING 240
SWIDTH 596 0
DWIDTH 15 0
BBX 14 15 3 1
BITMAP
0008
0010
07fc
0010
0f30
30a0
6060
4060
8060
8060
8040
80c0
80c0
43c0
3ef0
ENDCHAR
STARTCHAR nacute
ENCODING 241
SWIDTH 596 0
DWIDTH 15 0
BBX 14 15 1 1
BITMAP
0060
00c0
0180
0000
39e0
0f18
0c08
1808
1818
1010
1010
1010
3030
2020
f8f8
ENDCHAR
STARTCHAR ncaron
ENCODING 242
SWIDTH 596 0
DWIDTH 15 0
BBX 14 15 1 1
BITMAP
0190
00e0
0000
0000
39e0
0f18
0c08
1808
1818
1010
1010
1010
3030
2020
f8f8
ENDCHAR
STARTCHAR oacute
ENCODING 243
SWIDTH 596 0
DWIDTH 15 0
BBX 13 15 2 1
BITMAP
00c0
0180
0300
0000
07e0
1830
2018
4008
c008
8008
8018
8010
c020
60c0
3f00
ENDCHAR
STARTCHAR ocircumflex
ENCODING 244
SWIDTH 596 0
DWIDTH 15 0
BBX 13 15 2 1
BITMAP
01c0
0660
0000
0000
07e0
1830
2018
4008
c008
8008
8018
8010
c020
60c0
3f00
ENDCHAR
STARTCHAR ohungarumlaut
ENCODING 245
SWIDTH 596 0
DWIDTH 15 0
BBX 13 15 2 1
BITMAP
0190
0320
06c0
0000
07e0
1830
2018
4008
c008
8008
8018
8010
c020
60c0
3f00
ENDCHAR
STARTCHAR odieresis
ENCODING 246
SWIDTH 596 0
DWIDTH 15 0
BBX 13 15 2 1
BITMAP
0120
0360
0360
0000
07e0
1830
2018
4008
c008
8008
8018
8010
c020
60c0
3f00
ENDCHAR
STARTCHAR divide
ENCODING 247
SWIDTH 596 0
DWIDTH 15 0
BBX 12 11 3 3
BITMAP
0600
0600
0000
0000
0000
fff0
0000
0000
0000
0600
0600
ENDCHAR
STARTCHAR rcaron
ENCODING 248
SWIDTH 596 0
DWIDTH 15 0
BBX 14 15 2 1
BITMAP
0320
01c0
0000
0000
3e78
058c
070c
0600
0c00
0c00
0800
0800
0800
1800
ff80
ENDCHAR
STARTCHAR uring
ENCODING 249
SWIDTH 596 0
DWIDTH 15 0
BBX 11 16 3 1
BITMAP
0300
0480
0480
0300
0000
e0e0
2020
2060
2040
4040
4040
4040
40c0
4080
4380
3ce0
ENDCHAR
STARTCHAR uacute
ENCODING 250
SWIDTH 596 0
DWIDTH 15 0
BBX 11 15 3 1
BITMAP
0180
0300
0600
0000
e0e0
2020
2060
2040
4040
4040
4040
40c0
4080
4380
3ce0
ENDCHAR
STARTCHAR uhungarumlaut
ENCODING 251
SWIDTH 596 0
DWIDTH 15 0
BBX 12 15 3 1
BITMAP
0320
0640
0d80
0000
e0e0
2020
2060
2040
4040
4040
4040
40c0
4080
4380
3ce0
ENDCHAR
STARTCHAR udieresis
ENCODING 252
SWIDTH 596 0
DWIDTH 15 0
BBX 11 15 3 1
BITMAP
0240
06c0
06c0
0000
e0e0
2020
2060
2040
4040
4040
4040
40c0
4080
4380
3ce0
ENDCHAR
STARTCHAR yacute
ENCODING 253
SWIDTH 596 0
DWIDTH 15 0
BBX 13 19 3 -3
BITMAP
0180
0300
0600
0000
f8f8
2020
2020
6060
4040
4040
4040
40c0
41c0
2280
1c80
0080
0180
4300
7c00
ENDCHAR
STARTCHAR tcedilla
ENCODING 254
SWIDTH 596 0
DWIDTH 15 0
BBX 9 17 5 -2
BITMAP
2000
2000
2000
2000
ff00
4000
4000
4000
4000
8000
8000
8000
c380
7e00
3800
3800
f800
ENDCHAR
STARTCHAR dotaccent
ENCODING 255
SWIDTH 596 0
DWIDTH 15 0
BBX 2 3 9 13
BITMAP
c0
c0
c0
ENDCHAR
ENDFONT
